<svg width="360" height="90" viewBox="0 0 360 90" fill="none" xmlns="http://www.w3.org/2000/svg">
<g id="Logo">
<path id="text" d="M17.1973 59.498C15.3027 59.498 13.7207 59.3516 12.4512 59.0586C10.6934 58.6875 9.4043 58.1113 8.58398 57.3301C6.74805 53.4434 5.17578 49.1855 3.86719 44.5566C2.05078 38.1504 0.78125 31.5391 0.0585938 24.7227C0.9375 23.4336 2.13867 22.4375 3.66211 21.7344C5.18555 21.0117 6.88477 20.6504 8.75977 20.6504C11.5723 20.6504 13.7793 21.1875 15.3809 22.2617C17.002 23.3359 17.8125 24.8691 17.8125 26.8613C17.6758 28.3457 17.5488 30.5234 17.4316 33.3945C17.334 36.2656 17.2852 38.8633 17.2852 41.1875C17.2852 41.832 17.3438 42.3398 17.4609 42.7109C17.5977 43.0625 17.8711 43.2383 18.2812 43.2383C18.4375 43.2383 18.6328 43.209 18.8672 43.1504C18.8477 42.9746 18.8379 42.6816 18.8379 42.2715V41.2461C18.8379 38.4141 18.9355 35.1523 19.1309 31.4609C19.3262 27.75 19.5605 24.9863 19.834 23.1699C21.6113 22.0762 23.7012 21.5293 26.1035 21.5293C28.5059 21.5293 30.4395 21.8613 31.9043 22.5254C33.6621 23.3457 34.5898 24.5469 34.6875 26.1289C34.5898 28.043 34.4043 29.9277 34.1309 31.7832C33.877 33.6387 33.5645 35.7773 33.1934 38.1992C32.8223 40.6211 32.5879 42.2227 32.4902 43.0039C32.6465 43.082 32.8516 43.1211 33.1055 43.1211C33.3594 43.1211 33.5938 43.0234 33.8086 42.8281C34.0234 42.6328 34.1992 42.1641 34.3359 41.4219C34.9414 38.2969 35.4395 35.0059 35.8301 31.5488C36.2207 28.0723 36.4746 25.0449 36.5918 22.4668C38.3887 21.2559 40.8691 20.6504 44.0332 20.6504C46.5918 20.6504 48.6328 21.334 50.1562 22.7012C51.6797 24.0488 52.4414 25.8652 52.4414 28.1504C52.4414 29.6738 51.7188 33.668 50.2734 40.1328C49.5312 43.5312 48.8184 46.4414 48.1348 48.8633C47.4512 51.2656 46.8945 52.9551 46.4648 53.9316C45.5664 55.9043 44.2188 57.3301 42.4219 58.209C40.6445 59.0684 38.3691 59.498 35.5957 59.498C34.4824 59.498 33.1934 59.332 31.7285 59C30.2832 58.668 29.1797 58.2969 28.418 57.8867C28.0273 57.2812 27.5879 56.3633 27.0996 55.1328C26.6113 53.9023 26.3086 52.9746 26.1914 52.3496C25.4297 52.3691 25.0488 52.7793 25.0488 53.5801C25.0488 54.2051 25.3516 55.3574 25.957 57.0371C23.9062 58.6777 20.9863 59.498 17.1973 59.498ZM69.1043 59.9082C63.6941 59.9082 59.4266 58.4043 56.3016 55.3965C53.0984 52.3691 51.4969 48.2285 51.4969 42.9746C51.4969 37.7012 53.1473 33.5215 56.448 30.4355C59.4949 27.5645 63.3523 26.1289 68.0203 26.1289C72.6883 26.1289 76.4285 27.418 79.241 29.9961C82.073 32.5547 83.4891 35.709 83.4891 39.459C83.4891 42.7988 82.327 45.3184 80.0027 47.0176C77.8543 48.6191 74.9246 49.4199 71.2137 49.4199C68.4402 49.4199 66.0965 48.8438 64.1824 47.6914C64.0262 47.8086 63.948 48.0234 63.948 48.3359C63.948 48.9219 64.7195 49.459 66.2625 49.9473C67.8055 50.4746 69.5535 50.7383 71.5066 50.7383C73.4793 50.7383 75.2664 50.4941 76.868 50.0059C78.4891 49.498 79.7879 48.9023 80.7645 48.2188C81.2332 48.6289 81.6043 49.3906 81.8777 50.5039C82.1707 51.5977 82.3172 52.6035 82.3172 53.5215C82.3172 54.4199 82.2293 55.2207 82.0535 55.9238C80.5301 57.2129 78.9676 58.1309 77.366 58.6777C75.1004 59.498 72.3465 59.9082 69.1043 59.9082ZM68.7234 40.0742C69.7 40.0742 70.1883 39.7031 70.1883 38.9609C70.1883 38.2578 69.6707 37.9062 68.6355 37.9062C67.6004 37.9062 67.0047 38.4629 66.8484 39.5762C67.3953 39.9082 68.0203 40.0742 68.7234 40.0742ZM114.156 44.498C114.156 45.9043 114.312 47.0371 114.625 47.8965C114.937 48.7559 115.484 49.4297 116.265 49.918C116.285 50.0156 116.295 50.2012 116.295 50.4746V51.002C116.295 53.7754 115.455 55.9336 113.775 57.4766C112.291 58.8438 110.455 59.5273 108.267 59.5273C106.783 59.5273 105.425 59.1758 104.195 58.4727C102.964 57.7695 102.086 56.7539 101.558 55.4258C100.894 55.4258 100.562 55.748 100.562 56.3926C100.562 56.9395 100.904 57.5547 101.588 58.2383C100.318 59.0977 98.4039 59.5273 95.8453 59.5273C92.232 59.5273 89.3414 58.5508 87.1734 56.5977C85.025 54.625 83.9508 51.8809 83.9508 48.3652C83.9508 44.8301 85.0934 42.0957 87.3785 40.1621C89.4684 38.4238 92.1734 37.5547 95.4938 37.5547C96.6266 37.5547 97.7203 37.6328 98.775 37.7891C99.4781 37.9258 99.859 38.0039 99.9176 38.0234C99.9762 37.8281 100.005 37.6621 100.005 37.5254C100.005 37.0176 99.5758 36.6758 98.7164 36.5C97.857 36.3242 96.734 36.2363 95.3473 36.2363C92.398 36.2363 89.8785 36.832 87.7887 38.0234C86.8316 36.4023 86.3531 34.3516 86.3531 31.8711C86.3531 30.4648 86.5289 29.4199 86.8805 28.7363C88.2867 28.0918 90.0738 27.5254 92.2418 27.0371C94.4098 26.5293 96.6949 26.2754 99.0973 26.2754C104.058 26.2754 107.808 27.3594 110.347 29.5273C112.886 31.6953 114.156 34.7715 114.156 38.7559V44.498ZM98.9508 45.9336C98.1305 45.9336 97.7203 46.3047 97.7203 47.0469C97.7203 47.75 98.1988 48.1016 99.1559 48.1016C99.8199 48.1016 100.308 47.9453 100.621 47.6328C100.933 47.3008 101.089 46.7344 101.089 45.9336C101.089 45.9336 100.377 45.9336 98.9508 45.9336ZM131.463 47.0176C131.659 47.2129 131.893 47.3105 132.166 47.3105C132.596 47.3105 132.889 47.0078 133.045 46.4023C133.202 45.7773 133.28 44.5273 133.28 42.6523V39.6641C133.28 39.1367 133.211 38.7656 133.075 38.5508C132.938 38.3359 132.713 38.2285 132.401 38.2285C132.088 38.2285 131.864 38.2969 131.727 38.4336V42.3594C131.727 43.5312 131.639 45.084 131.463 47.0176ZM132.635 23.0234V25.6309C130.995 25.7285 129.491 25.9824 128.123 26.3926C126.756 26.7832 126.073 27.2422 126.073 27.7695C126.073 28.082 126.229 28.3359 126.541 28.5312C128.69 27.4766 130.965 26.9492 133.368 26.9492C137.664 26.9492 141.18 28.4336 143.914 31.4023C146.668 34.3516 148.045 38.1992 148.045 42.9453C148.045 48.6875 146.385 53.0137 143.065 55.9238C140.037 58.5801 135.916 59.9082 130.702 59.9082C125.506 59.9082 121.678 58.9023 119.217 56.8906C117.87 55.7773 117.196 54.332 117.196 52.5547V19.127C118.133 18.5801 119.256 18.1309 120.565 17.7793C121.893 17.4277 123.231 17.252 124.579 17.252C126.825 17.252 128.68 17.6914 130.145 18.5703C131.805 19.6055 132.635 21.0898 132.635 23.0234ZM164.679 42.6816V47.8086C164.816 47.9453 165.04 48.0137 165.353 48.0137C165.665 48.0137 165.89 47.9062 166.027 47.6914C166.163 47.4766 166.232 47.1055 166.232 46.5781V42.3887C166.232 40.5137 166.154 39.2734 165.997 38.668C165.841 38.043 165.548 37.7305 165.118 37.7305C164.845 37.7305 164.611 37.8281 164.415 38.0234C164.591 39.957 164.679 41.5098 164.679 42.6816ZM153.722 55.6602C150.519 52.5742 148.917 48.3945 148.917 43.1211C148.917 37.8281 150.421 33.6582 153.429 30.6113C156.456 27.5449 160.421 26.0117 165.323 26.0117C170.226 26.0117 174.191 27.6035 177.218 30.7871C180.226 33.9707 181.73 38.1211 181.73 43.2383C181.73 48.3359 180.275 52.3887 177.364 55.3965C174.474 58.4043 170.538 59.9082 165.558 59.9082C160.577 59.9082 156.632 58.4922 153.722 55.6602ZM183.129 53.5801V24.2246C183.129 23.209 183.939 22.3691 185.561 21.7051C187.201 21.0215 189.125 20.6797 191.332 20.6797C192.582 20.6797 193.754 20.8359 194.848 21.1484C195.961 21.4414 196.811 21.8223 197.396 22.291C198.197 23.3066 198.93 24.3418 199.594 25.3965C200.258 26.4512 201.752 28.9121 204.076 32.7793C204.291 32.7793 204.486 32.7109 204.662 32.5742C204.838 32.4375 204.926 32.2324 204.926 31.959C204.926 31.666 204.682 31.1094 204.193 30.2891L201.029 24.8398V23.2285C202.025 22.4082 203.236 21.7734 204.662 21.3242C206.088 20.875 207.562 20.6504 209.086 20.6504C211.566 20.6504 213.568 21.0996 215.092 21.998C216.869 23.0723 217.758 24.752 217.758 27.0371V54.7812C217.758 56.4609 216.957 57.6816 215.355 58.4434C213.988 59.127 212.162 59.4688 209.877 59.4688C208.607 59.4688 207.367 59.332 206.156 59.0586C204.965 58.7852 204.027 58.4336 203.344 58.0039C201.957 56.2266 200.58 54.2344 199.213 52.0273L196.225 47.0469C195.658 47.125 195.375 47.4277 195.375 47.9551C195.375 48.2871 195.658 48.9219 196.225 49.8594L199.887 55.7773V57.3301C197.621 58.7949 195.062 59.5273 192.211 59.5273C189.379 59.5273 187.152 59.0098 185.531 57.9746C183.93 56.9395 183.129 55.4746 183.129 53.5801ZM234.919 32.6328V44.2344C234.919 47.1445 235.622 49.0391 237.028 49.918C237.048 50.0156 237.057 50.2012 237.057 50.4746V51.002C237.057 53.873 236.276 56.0312 234.714 57.4766C233.268 58.8438 231.335 59.5273 228.913 59.5273C226.511 59.5273 224.528 58.8438 222.966 57.4766C220.993 55.7383 220.007 53.1992 220.007 49.8594V30.8164C220.358 30.5625 220.739 30.3574 221.149 30.2012C221.559 30.0449 221.989 29.8496 222.438 29.6152C221.598 29.1855 220.837 28.4434 220.153 27.3887C219.47 26.3145 219.128 25.0645 219.128 23.6387C219.128 21.1777 219.938 19.166 221.559 17.6035C223.18 16.041 225.163 15.2598 227.507 15.2598C229.87 15.2598 231.843 16.0605 233.425 17.6621C235.026 19.2441 235.827 21.2363 235.827 23.6387C235.827 25.5723 235.221 27.2715 234.011 28.7363C232.8 30.1816 231.325 31.0898 229.587 31.4609C229.587 32.2031 229.87 32.5742 230.436 32.5742C231.432 32.5742 232.448 32.1836 233.483 31.4023C234.264 32.0078 234.743 32.418 234.919 32.6328ZM268.691 44.498C268.691 45.9043 268.847 47.0371 269.16 47.8965C269.472 48.7559 270.019 49.4297 270.8 49.918C270.82 50.0156 270.83 50.2012 270.83 50.4746V51.002C270.83 53.6973 270.048 55.7969 268.486 57.3008C266.943 58.7852 264.941 59.5273 262.48 59.5273C260.039 59.5273 258.056 58.834 256.533 57.4473C254.755 55.8652 253.867 53.4629 253.867 50.2402C253.867 48.873 253.925 47.6719 254.043 46.6367C254.179 45.582 254.267 44.8301 254.306 44.3809C254.365 43.9316 254.423 43.5117 254.482 43.1211C254.541 42.7305 254.57 42.1543 254.57 41.3926C254.57 40.6309 254.462 40.084 254.248 39.752C254.052 39.4199 253.769 39.2539 253.398 39.2539C253.046 39.2539 252.734 39.332 252.461 39.4883L252.841 44.2637C252.49 46.2363 252.314 48.3262 252.314 50.5332C252.314 52.7402 252.812 54.752 253.808 56.5684C251.894 58.541 249.209 59.5273 245.752 59.5273C243.779 59.5273 242.07 59.0098 240.625 57.9746C238.945 56.8027 238.105 55.25 238.105 53.3164V19.127C239.043 18.5801 240.166 18.1309 241.474 17.7793C242.802 17.4277 244.14 17.252 245.488 17.252C247.734 17.252 249.589 17.6914 251.054 18.5703C252.714 19.6055 253.545 21.0898 253.545 23.0234V25.8066C251.845 25.9043 250.214 26.3926 248.652 27.2715C247.304 28.0527 246.63 28.7656 246.63 29.4102C246.63 29.625 246.709 29.8203 246.865 29.9961C247.021 30.1523 247.207 30.25 247.421 30.2891C248.242 29.332 249.394 28.5312 250.879 27.8867C252.382 27.2422 254.16 26.9199 256.211 26.9199C258.261 26.9199 260.107 27.2324 261.748 27.8574C263.818 28.6387 265.449 29.8301 266.64 31.4316C268.066 33.3848 268.779 35.8359 268.779 38.7852L268.691 44.498ZM357.279 44.498C357.279 45.9043 357.435 47.0371 357.748 47.8965C358.06 48.7559 358.607 49.4297 359.388 49.918C359.408 50.0156 359.418 50.2012 359.418 50.4746V51.002C359.418 53.6973 358.636 55.7969 357.074 57.3008C355.531 58.7852 353.529 59.5273 351.068 59.5273C348.627 59.5273 346.644 58.834 345.121 57.4473C343.343 55.8652 342.455 53.4629 342.455 50.2402C342.455 48.873 342.513 47.6719 342.63 46.6367C342.767 45.582 342.855 44.8301 342.894 44.3809C342.953 43.9316 343.011 43.5117 343.07 43.1211C343.129 42.7305 343.158 42.1543 343.158 41.3926C343.158 40.6309 343.05 40.084 342.836 39.752C342.64 39.4199 342.357 39.2539 341.986 39.2539C341.634 39.2539 341.322 39.332 341.048 39.4883L341.429 44.2637C341.078 46.2363 340.902 48.3262 340.902 50.5332C340.902 52.7402 341.4 54.752 342.396 56.5684C340.482 58.541 337.796 59.5273 334.339 59.5273C332.367 59.5273 330.658 59.0098 329.212 57.9746C327.533 56.8027 326.693 55.25 326.693 53.3164V39.1367C325.541 37.5156 324.964 35.5234 324.964 33.1602C324.964 30.7773 325.541 28.7168 326.693 26.9785H331.908C333.295 26.9785 334.476 27.4961 335.453 28.5312C334.593 29.332 334.164 29.9961 334.164 30.5234C334.164 31.1289 334.505 31.4316 335.189 31.4316C336.048 29.9473 337.357 28.7168 339.115 27.7402C340.892 26.7637 342.904 26.2754 345.15 26.2754C348.529 26.2754 351.273 27.1055 353.382 28.7656C356.039 30.8555 357.367 34.0977 357.367 38.4922L357.279 44.498Z" fill="white"/>
<g id="Flag">
<rect id="Rectangle 9" x="273" y="23" width="50" height="37.037" fill="white"/>
<circle id="Ellipse 4" cx="298.472" cy="41.8679" r="13.2075" fill="#FF0000"/>
</g>
</g>
</svg>
